<?xml version="1.0" encoding="utf-8"?>
<!-- Generator: Adobe Illustrator 26.0.1, SVG Export Plug-In . SVG Version: 6.00 Build 0)  -->
<svg version="1.1" id="Layer_1" xmlns:xodm="http://www.corel.com/coreldraw/odm/2003"
	 xmlns="http://www.w3.org/2000/svg" xmlns:xlink="http://www.w3.org/1999/xlink" x="0px" y="0px" viewBox="0 0 628.4 628.4"
	 style="enable-background:new 0 0 628.4 628.4;" xml:space="preserve">
<style type="text/css">
	.st0{fill-rule:evenodd;clip-rule:evenodd;fill:#FFFFFF;}
	.st1{fill:#FFFFFF;stroke:#FFFFFF;stroke-width:0.5;stroke-linecap:round;stroke-linejoin:round;stroke-miterlimit:10;}
	.st2{clip-path:url(#SVGID_00000139261118957343225730000010978914628865221279_);}
	.st3{fill:#FFFFFF;stroke:#FFFFFF;stroke-width:0.2162;stroke-miterlimit:10;}
	.st4{clip-path:url(#SVGID_00000101790391307320534890000000327916403464260514_);}
</style>
<g>
	<path class="st0" d="M339.6,386.3c-6.3-1.9-13.7-22.3-16.5-29.2c-6.7-16.2-41.5-84.5-44.1-95.2l-20.7,51.3
		c-2.3,6-16.9,49-16.9,51.8c0,3.5,37.8,65,44.6,76.4c18.1,30.2,4.2,23.4,65,23.4c0-15.6,4.9-20.4-1.4-45.7
		c-7-27.9-12.8-15.8,3.3-47.6c3.5-7.2,6.7-13.9,10.7-21.8l65-123.5c2.3-3-0.5-2.6,2.8-2.1l10,113c0,11.8,0.7,26.9,2.6,38.3l5.6,76.4
		c1.2,25.5,0.7,40.9-37.6,40.9v5.1c21.6,0,130.5,3.2,140.7-1.6c-3-7.4-3.2-1.4-14.6-6.7c-19.5-9.1-16.7-36.9-20-65.2l-6.3-59.2
		c-1.4-26-5.6-54.3-7.9-78.9l-7-79.8c0-3.9,3.9-7,6.7-8.4c8.1-3.7,7.7,0.5,9.7-4.9c-6.5-3.5-59.2-1.6-70.3-1.6
		c-6,0-8.6,11.6-14.6,21.8c-4.9,8.4-8.4,15.6-12.8,24.6C406,257,341.3,379.3,339.6,386.3L339.6,386.3z"/>
	<g>
		<defs>
			<path id="SVGID_1_" d="M339.6,386.3c-6.3-1.9-13.7-22.3-16.5-29.2c-6.7-16.2-41.5-84.5-44.1-95.2l-20.7,51.3
				c-2.3,6-16.9,49-16.9,51.8c0,3.5,37.8,65,44.6,76.4c18.1,30.2,4.2,23.4,65,23.4c0-15.6,4.9-20.4-1.4-45.7
				c-7-27.9-12.8-15.8,3.3-47.6c3.5-7.2,6.7-13.9,10.7-21.8l65-123.5c2.3-3-0.5-2.6,2.8-2.1l10,113c0,11.8,0.7,26.9,2.6,38.3
				l5.6,76.4c1.2,25.5,0.7,40.9-37.6,40.9v5.1c21.6,0,130.5,3.2,140.7-1.6c-3-7.4-3.2-1.4-14.6-6.7c-19.5-9.1-16.7-36.9-20-65.2
				l-6.3-59.2c-1.4-26-5.6-54.3-7.9-78.9l-7-79.8c0-3.9,3.9-7,6.7-8.4c8.1-3.7,7.7,0.5,9.7-4.9c-6.5-3.5-59.2-1.6-70.3-1.6
				c-6,0-8.6,11.6-14.6,21.8c-4.9,8.4-8.4,15.6-12.8,24.6C406,257,341.3,379.3,339.6,386.3L339.6,386.3z"/>
		</defs>
		<use xlink:href="#SVGID_1_"  style="overflow:visible;fill:#FFFFFF;"/>
		<clipPath id="SVGID_00000104672232552523572320000015298052913198032267_">
			<use xlink:href="#SVGID_1_"  style="overflow:visible;"/>
		</clipPath>
	</g>
	<path id="_x31_" class="st1" d="M339.6,386.3c-6.3-1.9-13.7-22.3-16.5-29.2c-6.7-16.2-41.5-84.5-44.1-95.2l-20.7,51.3
		c-2.3,6-16.9,49-16.9,51.8c0,3.5,37.8,65,44.6,76.4c18.1,30.2,4.2,23.4,65,23.4c0-15.6,4.9-20.4-1.4-45.7
		c-7-27.9-12.8-15.8,3.3-47.6c3.5-7.2,6.7-13.9,10.7-21.8l65-123.5c2.3-3-0.5-2.6,2.8-2.1l10,113c0,11.8,0.7,26.9,2.6,38.3l5.6,76.4
		c1.2,25.5,0.7,40.9-37.6,40.9v5.1c21.6,0,130.5,3.2,140.7-1.6c-3-7.4-3.2-1.4-14.6-6.7c-19.5-9.1-16.7-36.9-20-65.2l-6.3-59.2
		c-1.4-26-5.6-54.3-7.9-78.9l-7-79.8c0-3.9,3.9-7,6.7-8.4c8.1-3.7,7.7,0.5,9.7-4.9c-6.5-3.5-59.2-1.6-70.3-1.6
		c-6,0-8.6,11.6-14.6,21.8c-4.9,8.4-8.4,15.6-12.8,24.6C406,257,341.3,379.3,339.6,386.3L339.6,386.3z"/>
	<g>
		<defs>
			<path id="SVGID_00000172411001985953875890000006282973982090665662_" d="M339.6,386.3c-6.3-1.9-13.7-22.3-16.5-29.2
				c-6.7-16.2-41.5-84.5-44.1-95.2l-20.7,51.3c-2.3,6-16.9,49-16.9,51.8c0,3.5,37.8,65,44.6,76.4c18.1,30.2,4.2,23.4,65,23.4
				c0-15.6,4.9-20.4-1.4-45.7c-7-27.9-12.8-15.8,3.3-47.6c3.5-7.2,6.7-13.9,10.7-21.8l65-123.5c2.3-3-0.5-2.6,2.8-2.1l10,113
				c0,11.8,0.7,26.9,2.6,38.3l5.6,76.4c1.2,25.5,0.7,40.9-37.6,40.9v5.1c21.6,0,130.5,3.2,140.7-1.6c-3-7.4-3.2-1.4-14.6-6.7
				c-19.5-9.1-16.7-36.9-20-65.2l-6.3-59.2c-1.4-26-5.6-54.3-7.9-78.9l-7-79.8c0-3.9,3.9-7,6.7-8.4c8.1-3.7,7.7,0.5,9.7-4.9
				c-6.5-3.5-59.2-1.6-70.3-1.6c-6,0-8.6,11.6-14.6,21.8c-4.9,8.4-8.4,15.6-12.8,24.6C406,257,341.3,379.3,339.6,386.3L339.6,386.3z
				"/>
		</defs>
		<use xlink:href="#SVGID_00000172411001985953875890000006282973982090665662_"  style="overflow:visible;fill:#FFFFFF;"/>
		<clipPath id="SVGID_00000103238126518155923700000016640035131333175213_">
			<use xlink:href="#SVGID_00000172411001985953875890000006282973982090665662_"  style="overflow:visible;"/>
		</clipPath>
		<g style="clip-path:url(#SVGID_00000103238126518155923700000016640035131333175213_);">
			<path id="_x32_" class="st3" d="M241.4,190.8l311,308 M552.5,190.8l-311,308"/>
		</g>
	</g>
	<path class="st0" d="M256.1,276.5h-3.2c0-55.7-29.9-64.1-64.3-96.3c-8.8-8.4-27.4-20.7-34.8-30.4c-5.3-6.7-9.5-11.8-13.5-19.5
		c-22.1-44.3,19.5-56.9,61.7-53.6c12.3,1.2,37.6,12.3,44.8,19.3c26.2,25.5,13.5,36.4,22.5,42.9c4.6-9.8,1.6-53.6,1.6-68.7
		c-8.6,3-5.8,18.1-19.7,18.1c-9.1,0-85-41.8-143,0.9c-39.7,29.2-34.4,71.5-4.9,107.5c15.8,19,34.4,34.6,54.8,48.5
		c4.9,3,7.7,5.6,12.5,8.8c19.7,13.2,52.7,48.7,52.7,73.3c0,78.7-144.1,46.4-144.1-21.4l-3.3,72.2c10.2-5.6,1.2-2.3,7-14.4
		c11.4-24.6,31.8,14.4,86.4,14.4c35.3,0,40.9-6.5,52.5-6.7c-1.4,6.3-3,8.8-5.1,14.6c-1.6,4.6-3.2,9.5-4.9,14.6l-52.7,152
		c-6,15.3-16,51.1-20.9,61.3h6.5L322.9,99.1c1.2-3.9,1.6-6,3-10c2.3-6.5,26.2-68.9,23.4-74.7c-6.7,1.9-10.4,17.4-14.4,29.7
		l-34.1,98.7C297.2,153.9,256.3,267.7,256.1,276.5L256.1,276.5z"/>
	<g>
		<defs>
			<path id="SVGID_00000040559461509316793550000013592584707941669259_" d="M256.1,276.5h-3.2c0-55.7-29.9-64.1-64.3-96.3
				c-8.8-8.4-27.4-20.7-34.8-30.4c-5.3-6.7-9.5-11.8-13.5-19.5c-22.1-44.3,19.5-56.9,61.7-53.6c12.3,1.2,37.6,12.3,44.8,19.3
				c26.2,25.5,13.5,36.4,22.5,42.9c4.6-9.8,1.6-53.6,1.6-68.7c-8.6,3-5.8,18.1-19.7,18.1c-9.1,0-85-41.8-143,0.9
				c-39.7,29.2-34.4,71.5-4.9,107.5c15.8,19,34.4,34.6,54.8,48.5c4.9,3,7.7,5.6,12.5,8.8c19.7,13.2,52.7,48.7,52.7,73.3
				c0,78.7-144.1,46.4-144.1-21.4l-3.3,72.2c10.2-5.6,1.2-2.3,7-14.4c11.4-24.6,31.8,14.4,86.4,14.4c35.3,0,40.9-6.5,52.5-6.7
				c-1.4,6.3-3,8.8-5.1,14.6c-1.6,4.6-3.2,9.5-4.9,14.6l-52.7,152c-6,15.3-16,51.1-20.9,61.3h6.5L322.9,99.1c1.2-3.9,1.6-6,3-10
				c2.3-6.5,26.2-68.9,23.4-74.7c-6.7,1.9-10.4,17.4-14.4,29.7l-34.1,98.7C297.2,153.9,256.3,267.7,256.1,276.5L256.1,276.5z"/>
		</defs>
		<use xlink:href="#SVGID_00000040559461509316793550000013592584707941669259_"  style="overflow:visible;fill:#FFFFFF;"/>
		<clipPath id="SVGID_00000152239906226805119470000016301199911793666467_">
			<use xlink:href="#SVGID_00000040559461509316793550000013592584707941669259_"  style="overflow:visible;"/>
		</clipPath>
	</g>
	<path id="_x31__00000081628729131284428160000007448230904131144106_" class="st1" d="M256.1,276.5h-3.2
		c0-55.7-29.9-64.1-64.3-96.3c-8.8-8.4-27.4-20.7-34.8-30.4c-5.3-6.7-9.5-11.8-13.5-19.5c-22.1-44.3,19.5-56.9,61.7-53.6
		c12.3,1.2,37.6,12.3,44.8,19.3c26.2,25.5,13.5,36.4,22.5,42.9c4.6-9.8,1.6-53.6,1.6-68.7c-8.6,3-5.8,18.1-19.7,18.1
		c-9.1,0-85-41.8-143,0.9c-39.7,29.2-34.4,71.5-4.9,107.5c15.8,19,34.4,34.6,54.8,48.5c4.9,3,7.7,5.6,12.5,8.8
		c19.7,13.2,52.7,48.7,52.7,73.3c0,78.7-144.1,46.4-144.1-21.4l-3.3,72.2c10.2-5.6,1.2-2.3,7-14.4c11.4-24.6,31.8,14.4,86.4,14.4
		c35.3,0,40.9-6.5,52.5-6.7c-1.4,6.3-3,8.8-5.1,14.6c-1.6,4.6-3.2,9.5-4.9,14.6l-52.7,152c-6,15.3-16,51.1-20.9,61.3h6.5L322.9,99.1
		c1.2-3.9,1.6-6,3-10c2.3-6.5,26.2-68.9,23.4-74.7c-6.7,1.9-10.4,17.4-14.4,29.7l-34.1,98.7C297.2,153.9,256.3,267.7,256.1,276.5
		L256.1,276.5z"/>
	<g>
		<defs>
			<path id="SVGID_00000145769355097297542190000001407720486558048958_" d="M256.1,276.5h-3.2c0-55.7-29.9-64.1-64.3-96.3
				c-8.8-8.4-27.4-20.7-34.8-30.4c-5.3-6.7-9.5-11.8-13.5-19.5c-22.1-44.3,19.5-56.9,61.7-53.6c12.3,1.2,37.6,12.3,44.8,19.3
				c26.2,25.5,13.5,36.4,22.5,42.9c4.6-9.8,1.6-53.6,1.6-68.7c-8.6,3-5.8,18.1-19.7,18.1c-9.1,0-85-41.8-143,0.9
				c-39.7,29.2-34.4,71.5-4.9,107.5c15.8,19,34.4,34.6,54.8,48.5c4.9,3,7.7,5.6,12.5,8.8c19.7,13.2,52.7,48.7,52.7,73.3
				c0,78.7-144.1,46.4-144.1-21.4l-3.3,72.2c10.2-5.6,1.2-2.3,7-14.4c11.4-24.6,31.8,14.4,86.4,14.4c35.3,0,40.9-6.5,52.5-6.7
				c-1.4,6.3-3,8.8-5.1,14.6c-1.6,4.6-3.2,9.5-4.9,14.6l-52.7,152c-6,15.3-16,51.1-20.9,61.3h6.5L322.9,99.1c1.2-3.9,1.6-6,3-10
				c2.3-6.5,26.2-68.9,23.4-74.7c-6.7,1.9-10.4,17.4-14.4,29.7l-34.1,98.7C297.2,153.9,256.3,267.7,256.1,276.5L256.1,276.5z"/>
		</defs>
		<use xlink:href="#SVGID_00000145769355097297542190000001407720486558048958_"  style="overflow:visible;fill:#FFFFFF;"/>
		<clipPath id="SVGID_00000046317739813586680740000014912290420558743474_">
			<use xlink:href="#SVGID_00000145769355097297542190000001407720486558048958_"  style="overflow:visible;"/>
		</clipPath>
		<g style="clip-path:url(#SVGID_00000046317739813586680740000014912290420558743474_);">
			<path id="_x32__00000072963649033727831790000005293168935409990329_" class="st3" d="M75.9,14.4L349.6,614 M349.6,14.4L75.9,614
				"/>
		</g>
	</g>
</g>
</svg>
