<?xml version="1.0" encoding="utf-8"?>
<!-- Generator: Adobe Illustrator 26.0.1, SVG Export Plug-In . SVG Version: 6.00 Build 0)  -->
<svg version="1.1" id="Layer_1" xmlns:xodm="http://www.corel.com/coreldraw/odm/2003"
	 xmlns="http://www.w3.org/2000/svg" xmlns:xlink="http://www.w3.org/1999/xlink" x="0px" y="0px" viewBox="0 0 628.4 628.4"
	 style="enable-background:new 0 0 628.4 628.4;" xml:space="preserve">
<style type="text/css">
	.st0{fill:#FFFFFF;stroke:#FFFFFF;stroke-miterlimit:10;}
	.st1{fill-rule:evenodd;clip-rule:evenodd;}
</style>
<circle class="st0" cx="314.2" cy="314.2" r="308.2"/>
<g>
	<path class="st1" d="M334.6,372.4c-5.1-1.5-11.1-18-13.3-23.6c-5.4-13.1-33.5-68.3-35.6-76.9L269,313.4
		c-1.9,4.8-13.7,39.6-13.7,41.8c0,2.8,30.5,52.5,36,61.7c14.6,24.4,3.4,18.9,52.5,18.9c0-12.6,4-16.5-1.1-36.9
		c-5.7-22.5-10.3-12.8,2.7-38.5c2.8-5.8,5.4-11.2,8.6-17.6l52.5-99.8c1.9-2.4-0.4-2.1,2.3-1.7l8.1,91.3c0,9.5,0.6,21.7,2.1,30.9
		l4.5,61.7c1,20.6,0.6,33-30.4,33v4.1c17.4,0,105.4,2.6,113.7-1.3c-2.4-6-2.6-1.1-11.8-5.4c-15.8-7.4-13.5-29.8-16.2-52.7l-5.1-47.8
		c-1.1-21-4.5-43.9-6.4-63.7l-5.7-64.5c0-3.2,3.2-5.7,5.4-6.8c6.5-3,6.2,0.4,7.8-4c-5.3-2.8-47.8-1.3-56.8-1.3
		c-4.8,0-6.9,9.4-11.8,17.6c-4,6.8-6.8,12.6-10.3,19.9C388.3,268,336,366.8,334.6,372.4L334.6,372.4z"/>
	<g>
		<g>
			<path id="SVGID_1_" d="M334.6,372.4c-5.1-1.5-11.1-18-13.3-23.6c-5.4-13.1-33.5-68.3-35.6-76.9L269,313.4
				c-1.9,4.8-13.7,39.6-13.7,41.8c0,2.8,30.5,52.5,36,61.7c14.6,24.4,3.4,18.9,52.5,18.9c0-12.6,4-16.5-1.1-36.9
				c-5.7-22.5-10.3-12.8,2.7-38.5c2.8-5.8,5.4-11.2,8.6-17.6l52.5-99.8c1.9-2.4-0.4-2.1,2.3-1.7l8.1,91.3c0,9.5,0.6,21.7,2.1,30.9
				l4.5,61.7c1,20.6,0.6,33-30.4,33v4.1c17.4,0,105.4,2.6,113.7-1.3c-2.4-6-2.6-1.1-11.8-5.4c-15.8-7.4-13.5-29.8-16.2-52.7
				l-5.1-47.8c-1.1-21-4.5-43.9-6.4-63.7l-5.7-64.5c0-3.2,3.2-5.7,5.4-6.8c6.5-3,6.2,0.4,7.8-4c-5.3-2.8-47.8-1.3-56.8-1.3
				c-4.8,0-6.9,9.4-11.8,17.6c-4,6.8-6.8,12.6-10.3,19.9C388.3,268,336,366.8,334.6,372.4L334.6,372.4z"/>
		</g>
	</g>
	<path id="_x31_" d="M334.6,372.4c-5.1-1.5-11.1-18-13.3-23.6c-5.4-13.1-33.5-68.3-35.6-76.9L269,313.4
		c-1.9,4.8-13.7,39.6-13.7,41.8c0,2.8,30.5,52.5,36,61.7c14.6,24.4,3.4,18.9,52.5,18.9c0-12.6,4-16.5-1.1-36.9
		c-5.7-22.5-10.3-12.8,2.7-38.5c2.8-5.8,5.4-11.2,8.6-17.6l52.5-99.8c1.9-2.4-0.4-2.1,2.3-1.7l8.1,91.3c0,9.5,0.6,21.7,2.1,30.9
		l4.5,61.7c1,20.6,0.6,33-30.4,33v4.1c17.4,0,105.4,2.6,113.7-1.3c-2.4-6-2.6-1.1-11.8-5.4c-15.8-7.4-13.5-29.8-16.2-52.7l-5.1-47.8
		c-1.1-21-4.5-43.9-6.4-63.7l-5.7-64.5c0-3.2,3.2-5.7,5.4-6.8c6.5-3,6.2,0.4,7.8-4c-5.3-2.8-47.8-1.3-56.8-1.3
		c-4.8,0-6.9,9.4-11.8,17.6c-4,6.8-6.8,12.6-10.3,19.9C388.3,268,336,366.8,334.6,372.4L334.6,372.4z"/>
	<g>
		<path id="SVGID_00000172411001985953875890000006282973982090665662_" d="M334.6,372.4c-5.1-1.5-11.1-18-13.3-23.6
			c-5.4-13.1-33.5-68.3-35.6-76.9L269,313.4c-1.9,4.8-13.7,39.6-13.7,41.8c0,2.8,30.5,52.5,36,61.7c14.6,24.4,3.4,18.9,52.5,18.9
			c0-12.6,4-16.5-1.1-36.9c-5.7-22.5-10.3-12.8,2.7-38.5c2.8-5.8,5.4-11.2,8.6-17.6l52.5-99.8c1.9-2.4-0.4-2.1,2.3-1.7l8.1,91.3
			c0,9.5,0.6,21.7,2.1,30.9l4.5,61.7c1,20.6,0.6,33-30.4,33v4.1c17.4,0,105.4,2.6,113.7-1.3c-2.4-6-2.6-1.1-11.8-5.4
			c-15.8-7.4-13.5-29.8-16.2-52.7l-5.1-47.8c-1.1-21-4.5-43.9-6.4-63.7l-5.7-64.5c0-3.2,3.2-5.7,5.4-6.8c6.5-3,6.2,0.4,7.8-4
			c-5.3-2.8-47.8-1.3-56.8-1.3c-4.8,0-6.9,9.4-11.8,17.6c-4,6.8-6.8,12.6-10.3,19.9C388.3,268,336,366.8,334.6,372.4L334.6,372.4z"
			/>
	</g>
	<path d="M334.6,372.4c-5.1-1.5-11.1-18-13.3-23.6c-5.4-13.1-33.5-68.3-35.6-76.9L269,313.4c-1.9,4.8-13.7,39.6-13.7,41.8
		c0,2.8,30.5,52.5,36,61.7c14.6,24.4,3.4,18.9,52.5,18.9c0-12.6,4-16.5-1.1-36.9c-5.7-22.5-10.3-12.8,2.7-38.5
		c2.8-5.8,5.4-11.2,8.6-17.6l52.5-99.8c1.9-2.4-0.4-2.1,2.3-1.7l8.1,91.3c0,9.5,0.6,21.7,2.1,30.9l4.5,61.7c1,20.6,0.6,33-30.4,33
		v4.1c17.4,0,105.4,2.6,113.7-1.3c-2.4-6-2.6-1.1-11.8-5.4c-15.8-7.4-13.5-29.8-16.2-52.7l-5.1-47.8c-1.1-21-4.5-43.9-6.4-63.7
		l-5.7-64.5c0-3.2,3.2-5.7,5.4-6.8c6.5-3,6.2,0.4,7.8-4c-5.3-2.8-47.8-1.3-56.8-1.3c-4.8,0-6.9,9.4-11.8,17.6
		c-4,6.8-6.8,12.6-10.3,19.9C388.3,268,336,366.8,334.6,372.4L334.6,372.4z"/>
	<path class="st1" d="M267.2,283.7h-2.6c0-45-24.2-51.8-51.9-77.8c-7.1-6.8-22.1-16.7-28.1-24.6c-4.3-5.4-7.7-9.5-10.9-15.8
		c-17.9-35.8,15.8-46,49.8-43.3c9.9,1,30.4,9.9,36.2,15.6c21.2,20.6,10.9,29.4,18.2,34.7c3.7-7.9,1.3-43.3,1.3-55.5
		c-6.9,2.4-4.7,14.6-15.9,14.6c-7.4,0-68.7-33.8-115.5,0.7c-32.1,23.6-27.8,57.8-4,86.8c12.8,15.3,27.8,28,44.3,39.2
		c4,2.4,6.2,4.5,10.1,7.1c15.9,10.7,42.6,39.3,42.6,59.2c0,63.6-116.4,37.5-116.4-17.3l-2.7,58.3c8.2-4.5,1-1.9,5.7-11.6
		c9.2-19.9,25.7,11.6,69.8,11.6c28.5,0,33-5.3,42.4-5.4c-1.1,5.1-2.4,7.1-4.1,11.8c-1.3,3.7-2.6,7.7-4,11.8l-42.6,122.8
		c-4.8,12.4-12.9,41.3-16.9,49.5h5.3l144-415.9c1-3.2,1.3-4.8,2.4-8.1c1.9-5.3,21.2-55.7,18.9-60.3c-5.4,1.5-8.4,14.1-11.6,24
		l-27.5,79.7C300.4,184.7,267.3,276.6,267.2,283.7L267.2,283.7z"/>
	<g>
		<g>
			<path id="SVGID_00000040559461509316793550000013592584707941669259_" d="M267.2,283.7h-2.6c0-45-24.2-51.8-51.9-77.8
				c-7.1-6.8-22.1-16.7-28.1-24.6c-4.3-5.4-7.7-9.5-10.9-15.8c-17.9-35.8,15.8-46,49.8-43.3c9.9,1,30.4,9.9,36.2,15.6
				c21.2,20.6,10.9,29.4,18.2,34.7c3.7-7.9,1.3-43.3,1.3-55.5c-6.9,2.4-4.7,14.6-15.9,14.6c-7.4,0-68.7-33.8-115.5,0.7
				c-32.1,23.6-27.8,57.8-4,86.8c12.8,15.3,27.8,28,44.3,39.2c4,2.4,6.2,4.5,10.1,7.1c15.9,10.7,42.6,39.3,42.6,59.2
				c0,63.6-116.4,37.5-116.4-17.3l-2.7,58.3c8.2-4.5,1-1.9,5.7-11.6c9.2-19.9,25.7,11.6,69.8,11.6c28.5,0,33-5.3,42.4-5.4
				c-1.1,5.1-2.4,7.1-4.1,11.8c-1.3,3.7-2.6,7.7-4,11.8l-42.6,122.8c-4.8,12.4-12.9,41.3-16.9,49.5h5.3l144-415.9
				c1-3.2,1.3-4.8,2.4-8.1c1.9-5.3,21.2-55.7,18.9-60.3c-5.4,1.5-8.4,14.1-11.6,24l-27.5,79.7C300.4,184.7,267.3,276.6,267.2,283.7
				L267.2,283.7z"/>
		</g>
	</g>
	<path id="_x31__00000081628729131284428160000007448230904131144106_" d="M267.2,283.7h-2.6c0-45-24.2-51.8-51.9-77.8
		c-7.1-6.8-22.1-16.7-28.1-24.6c-4.3-5.4-7.7-9.5-10.9-15.8c-17.9-35.8,15.8-46,49.8-43.3c9.9,1,30.4,9.9,36.2,15.6
		c21.2,20.6,10.9,29.4,18.2,34.7c3.7-7.9,1.3-43.3,1.3-55.5c-6.9,2.4-4.7,14.6-15.9,14.6c-7.4,0-68.7-33.8-115.5,0.7
		c-32.1,23.6-27.8,57.8-4,86.8c12.8,15.3,27.8,28,44.3,39.2c4,2.4,6.2,4.5,10.1,7.1c15.9,10.7,42.6,39.3,42.6,59.2
		c0,63.6-116.4,37.5-116.4-17.3l-2.7,58.3c8.2-4.5,1-1.9,5.7-11.6c9.2-19.9,25.7,11.6,69.8,11.6c28.5,0,33-5.3,42.4-5.4
		c-1.1,5.1-2.4,7.1-4.1,11.8c-1.3,3.7-2.6,7.7-4,11.8l-42.6,122.8c-4.8,12.4-12.9,41.3-16.9,49.5h5.3l144-415.9
		c1-3.2,1.3-4.8,2.4-8.1c1.9-5.3,21.2-55.7,18.9-60.3c-5.4,1.5-8.4,14.1-11.6,24l-27.5,79.7C300.4,184.7,267.3,276.6,267.2,283.7
		L267.2,283.7z"/>
	<g>
		<path id="SVGID_00000145769355097297542190000001407720486558048958_" d="M267.2,283.8h-2.6c0-45-24.2-51.8-51.9-77.8
			c-7.1-6.8-22.1-16.7-28.1-24.6c-4.3-5.4-7.7-9.5-10.9-15.8c-17.9-35.8,15.8-46,49.8-43.3c9.9,1,30.4,9.9,36.2,15.6
			c21.2,20.6,10.9,29.4,18.2,34.7c3.7-7.9,1.3-43.3,1.3-55.5c-6.9,2.4-4.7,14.6-15.9,14.6c-7.4,0-68.7-33.8-115.5,0.7
			c-32.1,23.6-27.8,57.8-4,86.8c12.8,15.3,27.8,28,44.3,39.2c4,2.4,6.2,4.5,10.1,7.1c15.9,10.7,42.6,39.3,42.6,59.2
			c0,63.6-116.4,37.5-116.4-17.3l-2.7,58.3c8.2-4.5,1-1.9,5.7-11.6c9.2-19.9,25.7,11.6,69.8,11.6c28.5,0,33-5.3,42.4-5.4
			c-1.1,5.1-2.4,7.1-4.1,11.8c-1.3,3.7-2.6,7.7-4,11.8l-42.6,122.8c-4.8,12.4-12.9,41.3-16.9,49.5h5.3l144-415.9
			c1-3.2,1.3-4.8,2.4-8.1c1.9-5.3,21.2-55.7,18.9-60.3c-5.4,1.5-8.4,14.1-11.6,24l-27.5,79.7C300.4,184.7,267.3,276.7,267.2,283.8
			L267.2,283.8z"/>
	</g>
	<path d="M267.2,283.7h-2.6c0-45-24.2-51.8-51.9-77.8c-7.1-6.8-22.1-16.7-28.1-24.6c-4.3-5.4-7.7-9.5-10.9-15.8
		c-17.9-35.8,15.8-46,49.8-43.3c9.9,1,30.4,9.9,36.2,15.6c21.2,20.6,10.9,29.4,18.2,34.7c3.7-7.9,1.3-43.3,1.3-55.5
		c-6.9,2.4-4.7,14.6-15.9,14.6c-7.4,0-68.7-33.8-115.5,0.7c-32.1,23.6-27.8,57.8-4,86.8c12.8,15.3,27.8,28,44.3,39.2
		c4,2.4,6.2,4.5,10.1,7.1c15.9,10.7,42.6,39.3,42.6,59.2c0,63.6-116.4,37.5-116.4-17.3l-2.7,58.3c8.2-4.5,1-1.9,5.7-11.6
		c9.2-19.9,25.7,11.6,69.8,11.6c28.5,0,33-5.3,42.4-5.4c-1.1,5.1-2.4,7.1-4.1,11.8c-1.3,3.7-2.6,7.7-4,11.8l-42.6,122.8
		c-4.8,12.4-12.9,41.3-16.9,49.5h5.3l144-415.9c1-3.2,1.3-4.8,2.4-8.1c1.9-5.3,21.2-55.7,18.9-60.3c-5.4,1.5-8.4,14.1-11.6,24
		l-27.5,79.7C300.4,184.7,267.3,276.6,267.2,283.7L267.2,283.7z"/>
</g>
</svg>
